<?xml version="1.0" standalone="no"?>
<!DOCTYPE svg PUBLIC "-//W3C//DTD SVG 20010904//EN"
 "http://www.w3.org/TR/2001/REC-SVG-20010904/DTD/svg10.dtd">
<svg version="1.0" xmlns="http://www.w3.org/2000/svg"
 width="700.000000pt" height="700.000000pt" viewBox="0 0 700.000000 700.000000"
 preserveAspectRatio="xMidYMid meet">
<metadata>
Created by potrace 1.11, written by Peter Selinger 2001-2013
</metadata>
<g transform="translate(0.000000,700.000000) scale(0.100000,-0.100000)"
fill="#000000" stroke="none">
<path d="M3188 6815 c-2 -1 -50 -5 -108 -9 -58 -4 -114 -9 -125 -11 -11 -3
-40 -7 -65 -9 -153 -16 -519 -104 -645 -156 -11 -4 -69 -27 -130 -50 -394
-152 -780 -407 -1101 -725 -427 -424 -719 -926 -874 -1509 -18 -65 -34 -130
-36 -145 -3 -14 -11 -60 -19 -101 -8 -41 -17 -97 -21 -125 -4 -27 -8 -59 -10
-70 -19 -100 -26 -582 -11 -710 22 -186 30 -241 53 -350 13 -66 26 -127 28
-135 147 -577 415 -1064 824 -1499 59 -63 108 -117 110 -120 1 -3 -224 -6
-500 -6 l-502 0 0 -409 0 -410 24 -6 c35 -8 1954 -5 2070 4 52 4 138 14 190
23 116 19 108 19 205 -5 79 -20 231 -52 270 -57 101 -12 143 -18 160 -21 140
-27 613 -23 790 5 33 6 80 13 105 16 93 13 322 65 432 98 308 94 578 220 857
398 50 32 77 45 80 36 2 -6 17 -25 33 -41 15 -17 28 -33 28 -38 0 -4 7 -8 17
-8 9 0 14 -3 10 -6 -8 -9 32 -46 43 -39 6 4 7 -1 3 -11 -5 -14 -3 -16 11 -11
9 4 15 3 12 -2 -3 -5 10 -22 30 -37 20 -16 42 -33 48 -39 37 -32 78 -55 89
-49 6 4 9 4 5 -1 -11 -11 29 -38 44 -29 6 4 8 3 5 -3 -9 -14 151 -93 192 -96
11 -1 21 -4 21 -8 0 -6 54 -23 105 -34 11 -2 34 -8 51 -13 22 -7 36 -7 44 1
10 9 11 9 5 -2 -6 -11 -4 -13 8 -8 9 3 19 2 22 -3 4 -6 11 -10 16 -10 6 0 8 4
5 8 -3 5 1 9 9 9 8 0 12 -4 9 -9 -3 -4 4 -9 15 -9 12 -1 31 -2 44 -3 12 -1 28
3 36 8 11 8 13 8 7 -1 -5 -9 -1 -13 11 -13 16 0 19 7 18 43 0 23 -4 49 -9 57
-7 12 -7 13 5 2 8 -7 14 -32 14 -55 0 -45 -3 -43 70 -47 25 -2 46 3 64 14 9 6
12 5 7 -2 -3 -6 -2 -13 4 -17 5 -3 10 -1 10 5 0 6 4 8 10 5 12 -7 169 -10 176
-3 3 3 21 2 40 -2 28 -6 34 -5 34 8 0 13 2 13 13 -3 9 -11 16 -14 20 -8 6 10
76 7 86 -3 2 -2 13 2 24 7 15 8 22 8 28 -2 7 -11 9 -11 9 1 0 13 1 13 10 0 8
-12 10 -12 10 5 0 17 2 17 10 5 5 -8 10 -10 10 -5 0 6 5 3 10 -5 7 -11 10 -11
10 -2 0 7 5 10 10 7 6 -3 10 0 10 7 0 8 4 7 11 -4 13 -23 39 -12 39 17 0 26
-15 42 -23 25 -3 -6 -4 -5 -2 2 1 7 7 12 12 11 6 -1 11 18 11 43 1 26 -3 42
-8 39 -6 -3 -10 -1 -10 4 0 6 4 11 9 11 15 0 8 50 -9 61 -13 9 -12 10 2 6 13
-5 16 0 16 25 -1 37 -25 64 -53 61 -20 -3 -20 -3 0 6 14 6 23 5 31 -5 6 -8 14
-14 18 -14 13 0 5 23 -11 36 -17 13 -17 14 0 8 11 -4 17 -1 17 9 0 19 -16 31
-23 17 -3 -6 -4 -5 -2 2 1 7 7 12 12 11 6 -1 11 18 11 43 1 26 -3 42 -8 39 -6
-3 -10 -1 -10 4 0 6 4 11 9 11 15 0 8 50 -9 61 -13 9 -12 10 2 6 13 -5 16 0
16 25 -1 37 -25 64 -53 61 -20 -3 -20 -3 0 6 14 6 23 5 31 -5 15 -18 24 -18
24 1 0 8 -4 15 -10 15 -5 0 -10 8 -10 18 0 14 2 14 9 3 7 -10 10 4 10 41 0 45
-3 56 -15 51 -7 -3 -11 -10 -7 -16 4 -6 1 -7 -7 -2 -10 6 -9 11 6 22 20 14 30
63 13 63 -5 0 -9 -4 -9 -10 0 -5 -5 -10 -11 -10 -5 0 -8 4 -5 9 3 5 -5 9 -18
9 -18 0 -23 -5 -19 -17 4 -14 3 -14 -6 -1 -12 18 -165 24 -154 7 4 -6 1 -7 -8
-1 -8 5 -29 9 -47 10 -28 2 -31 0 -21 -12 10 -12 9 -13 -6 -8 -14 6 -16 4 -10
-6 5 -8 4 -11 -3 -6 -6 4 -9 12 -6 20 6 16 -58 18 -68 2 -5 -8 -8 -7 -8 1 0
15 -49 14 -69 -1 -10 -7 -13 -7 -9 -1 4 7 -33 11 -109 12 -102 1 -168 6 -237
18 -19 4 -52 18 -122 54 -36 18 -124 97 -124 111 0 5 -6 13 -14 17 -28 17 -21
40 34 108 330 407 557 869 669 1360 16 72 32 150 36 175 4 24 8 47 10 50 1 3
6 36 10 73 3 37 8 77 10 89 22 111 22 602 1 713 -2 11 -7 47 -10 80 -36 322
-157 717 -321 1045 -55 112 -178 326 -194 340 -3 3 -12 16 -20 30 -16 29 -170
235 -198 265 -10 11 -33 38 -52 60 -56 67 -232 245 -311 314 -117 103 -300
242 -398 302 -279 171 -484 269 -752 359 -185 62 -481 128 -650 145 -36 4 -83
9 -105 11 -45 5 -442 13 -447 9z m2682 -5571 c0 -8 -19 -13 -24 -6 -3 5 1 9 9
9 8 0 15 -2 15 -3z m35 -36 c5 4 5 1 1 -6 -6 -10 -11 -10 -22 -1 -8 6 -14 14
-14 16 0 3 6 0 13 -6 8 -6 18 -7 22 -3z m-135 -2 c0 -2 -7 -7 -16 -10 -8 -3
-12 -2 -9 4 6 10 25 14 25 6z m155 -25 c3 -5 2 -12 -3 -15 -5 -3 -9 1 -9 9 0
17 3 19 12 6z m-220 -41 c3 -5 1 -10 -4 -10 -6 0 -11 5 -11 10 0 6 2 10 4 10
3 0 8 -4 11 -10z m359 -18 c3 -5 -1 -9 -9 -9 -8 0 -12 4 -9 9 3 4 7 8 9 8 2 0
6 -4 9 -8z m-354 -22 c0 -5 -2 -10 -4 -10 -3 0 -8 5 -11 10 -3 6 -1 10 4 10 6
0 11 -4 11 -10z m275 -19 c3 -5 2 -12 -3 -15 -5 -3 -9 1 -9 9 0 17 3 19 12 6z
m40 -9 c-3 -3 -11 0 -18 7 -9 10 -8 11 6 5 10 -3 15 -9 12 -12z m95 13 c0 -2
-6 -8 -13 -14 -10 -8 -14 -7 -14 2 0 8 6 14 14 14 7 0 13 -1 13 -2z m403 -18
c3 -8 -1 -14 -8 -14 -7 0 -11 6 -8 14 3 7 6 13 8 13 2 0 5 -6 8 -13z m299 -1
c7 4 8 2 4 -5 -9 -13 -26 -5 -25 12 0 9 2 8 6 -1 2 -6 10 -9 15 -6z m-1077 -6
c3 -5 1 -10 -4 -10 -6 0 -11 5 -11 10 0 6 2 10 4 10 3 0 8 -4 11 -10z m506 -3
c-6 -8 -9 -16 -6 -19 3 -3 -3 -11 -12 -19 -16 -13 -17 -12 -4 4 7 9 10 17 6
17 -4 0 -2 7 5 15 7 8 15 15 17 15 3 0 0 -6 -6 -13z m49 8 c0 -1 -10 -10 -22
-21 -14 -12 -18 -13 -10 -3 6 9 10 18 7 21 -3 2 2 5 10 5 8 0 15 -1 15 -2z
m30 -10 c-5 -7 -9 -14 -7 -16 1 -2 0 -3 -2 -2 -2 2 -11 -3 -20 -9 -12 -10 -12
-7 2 8 9 11 15 23 12 26 -3 2 2 5 10 5 10 0 12 -4 5 -12z m50 10 c0 -1 -10
-10 -22 -21 -14 -12 -18 -13 -10 -3 6 9 10 18 7 21 -3 2 2 5 10 5 8 0 15 -1
15 -2z m105 -13 c-3 -3 -11 0 -18 7 -9 10 -8 11 6 5 10 -3 15 -9 12 -12z m285
9 c0 -5 -8 -15 -17 -22 -16 -12 -17 -12 -6 2 7 9 10 19 6 22 -3 4 -1 7 5 7 7
0 12 -4 12 -9z m77 -22 c0 -21 -3 -26 -9 -16 -4 9 -5 22 -2 31 9 23 11 20 11
-15z m75 -15 c-6 -12 -9 -7 -9 16 0 23 3 28 9 16 5 -9 5 -23 0 -32z m-312 13
c0 -6 -3 -7 -7 -4 -3 4 -11 3 -17 -3 -8 -6 -12 -3 -12 9 0 12 6 17 18 13 10
-2 18 -9 18 -15z m-980 9 c0 -3 -4 -8 -10 -11 -5 -3 -10 -1 -10 4 0 6 5 11 10
11 6 0 10 -2 10 -4z m377 -13 c0 -8 -4 -10 -12 -3 -7 5 -16 6 -20 2 -5 -4 -5
-2 -2 4 9 15 34 13 34 -3z m57 6 c3 -3 -5 -5 -19 -5 -13 0 -22 3 -19 7 4 8 30
6 38 -2z m66 1 c0 -5 -5 -10 -11 -10 -5 0 -7 5 -4 10 3 6 8 10 11 10 2 0 4 -4
4 -10z m35 2 c-3 -3 0 -11 6 -19 17 -20 5 -16 -14 5 -15 16 -15 19 -2 19 8 0
13 -3 10 -5z m244 5 c-2 -1 -13 -9 -24 -17 -19 -14 -19 -14 -6 3 7 9 18 17 24
17 6 0 8 -1 6 -3z m298 -12 c5 -4 2 -5 -6 0 -11 6 -13 4 -8 -8 4 -10 2 -14 -7
-11 -17 6 -16 32 0 30 8 -1 17 -6 21 -11z m183 1 c-7 -7 -13 -7 -20 0 -6 6 -3
10 10 10 13 0 16 -4 10 -10z m-80 -11 c5 3 12 0 16 -6 4 -8 3 -9 -4 -5 -7 4
-12 1 -13 -6 0 -10 -2 -10 -6 0 -2 6 -9 10 -13 7 -5 -3 -12 0 -16 6 -4 8 -3 9
4 5 7 -4 12 -1 13 6 0 10 2 10 6 0 2 -6 9 -10 13 -7z m-396 -3 c3 -5 -1 -9 -9
-9 -8 0 -12 4 -9 9 3 4 7 8 9 8 2 0 6 -4 9 -8z m77 -10 c-6 -12 -7 -23 -1 -31
6 -6 2 -5 -7 3 -13 12 -14 18 -3 30 17 22 23 20 11 -2z m-221 4 c0 -2 -8 -10
-17 -17 -16 -13 -17 -12 -4 4 13 16 21 21 21 13z m70 -9 c-20 -15 -20 -68 0
-93 14 -17 13 -18 -1 -7 -9 7 -18 11 -20 8 -3 -2 -5 16 -4 41 0 28 6 49 15 54
21 14 28 12 10 -3z m227 -17 c-1 -11 -4 -20 -8 -20 -4 0 -6 11 -5 24 0 13 4
22 8 20 4 -2 6 -13 5 -24z m96 17 c4 3 7 1 7 -6 0 -7 -6 -11 -12 -8 -7 2 -19
-3 -26 -12 -11 -14 -12 -13 -3 5 6 12 7 25 3 30 -4 5 0 3 9 -4 9 -6 19 -9 22
-5z m77 9 c0 -2 -7 -7 -16 -10 -8 -3 -12 -2 -9 4 6 10 25 14 25 6z m26 -25
c-4 -6 -13 -11 -19 -11 -8 0 -7 3 2 9 8 5 10 14 6 22 -6 11 -5 11 5 2 7 -6 9
-16 6 -22z m101 9 c-2 -11 -7 -23 -12 -27 -4 -5 -5 -2 -1 5 4 6 2 12 -4 12 -7
0 -6 5 2 15 17 19 18 19 15 -5z m24 -3 c-10 -9 -11 -8 -5 6 3 10 9 15 12 12 3
-3 0 -11 -7 -18z m-1046 3 c3 -5 1 -10 -4 -10 -6 0 -11 5 -11 10 0 6 2 10 4
10 3 0 8 -4 11 -10z m165 6 c0 -3 -4 -8 -10 -11 -5 -3 -10 -1 -10 4 0 6 5 11
10 11 6 0 10 -2 10 -4z m140 0 c0 -2 -7 -7 -16 -10 -8 -3 -12 -2 -9 4 6 10 25
14 25 6z m231 -13 c13 -16 12 -17 -3 -4 -10 7 -18 15 -18 17 0 8 8 3 21 -13z
m-12 -37 c-3 -3 -11 5 -18 17 -13 21 -12 21 5 5 10 -10 16 -20 13 -22z m536
24 c-8 -13 1 -13 26 0 10 6 19 8 19 6 0 -10 -41 -27 -50 -21 -10 6 -5 25 6 25
3 0 2 -4 -1 -10z m-895 -4 c0 -2 -6 -9 -14 -15 -11 -9 -16 -9 -22 0 -4 7 -3 9
4 5 6 -3 13 -2 17 4 6 10 15 14 15 6z m220 0 c0 -2 -8 -10 -17 -17 -16 -13
-17 -12 -4 4 13 16 21 21 21 13z m-376 -14 c2 -4 -4 -8 -14 -8 -10 0 -16 4
-14 8 3 4 9 8 14 8 5 0 11 -4 14 -8z m207 -9 c12 -16 12 -17 -2 -6 -9 7 -20 9
-24 5 -5 -4 -5 -1 -1 6 9 16 11 15 27 -5z m225 -5 c19 -23 19 -23 -2 -5 -11 9
-24 14 -29 10 -4 -5 -5 -2 -1 5 9 16 10 16 32 -10z m478 6 c3 -8 2 -12 -4 -9
-6 3 -10 10 -10 16 0 14 7 11 14 -7z m122 4 c4 -7 3 -8 -4 -4 -7 4 -12 2 -12
-5 0 -7 -3 -10 -6 -6 -6 5 3 27 11 27 2 0 7 -5 11 -12z m69 2 c-3 -5 -12 -10
-18 -10 -7 0 -6 4 3 10 19 12 23 12 15 0z m-145 -10 c8 -5 11 -10 5 -10 -5 0
-17 5 -25 10 -8 5 -10 10 -5 10 6 0 17 -5 25 -10z m-1260 -4 c0 -3 -4 -8 -10
-11 -5 -3 -10 -1 -10 4 0 6 5 11 10 11 6 0 10 -2 10 -4z m377 -11 c0 -8 -4
-12 -9 -9 -5 3 -6 10 -3 15 9 13 12 11 12 -6z m563 11 c0 -2 -7 -7 -16 -10 -8
-3 -12 -2 -9 4 6 10 25 14 25 6z m33 -9 c-4 -7 1 -8 12 -3 15 5 16 4 5 -9 -7
-9 -13 -14 -14 -13 -1 2 -7 10 -14 19 -9 13 -9 16 3 16 8 0 11 -5 8 -10z m213
-15 c-13 -13 -18 -14 -28 -3 -7 7 -8 12 -3 11 23 -5 36 1 29 12 -5 7 -3 8 5 3
10 -6 9 -11 -3 -23z m114 18 c0 -5 -2 -10 -4 -10 -3 0 -8 5 -11 10 -3 6 -1 10
4 10 6 0 11 -4 11 -10z m-664 -15 c-1 -8 -5 -17 -8 -21 -5 -4 -4 16 1 34 3 9
9 -1 7 -13z m95 -12 c17 -20 18 -23 3 -10 -11 9 -23 15 -26 12 -2 -3 -5 2 -5
10 0 19 -1 20 28 -12z m109 23 c0 -2 -8 -10 -17 -17 -16 -13 -17 -12 -4 4 13
16 21 21 21 13z m44 -12 c3 -8 2 -12 -4 -9 -6 3 -10 10 -10 16 0 14 7 11 14
-7z m143 -6 c-3 -8 -6 -5 -6 6 -1 11 2 17 5 13 3 -3 4 -12 1 -19z m-613 4 c3
-5 -1 -9 -9 -9 -8 0 -12 4 -9 9 3 4 7 8 9 8 2 0 6 -4 9 -8z m60 -8 c3 -8 2
-12 -4 -9 -6 3 -10 10 -10 16 0 14 7 11 14 -7z m197 -1 c13 -16 12 -17 -3 -4
-17 13 -22 21 -14 21 2 0 10 -8 17 -17z m614 7 c3 -6 -1 -7 -9 -4 -18 7 -21
14 -7 14 6 0 13 -4 16 -10z m80 0 c-3 -5 -11 -10 -16 -10 -6 0 -7 5 -4 10 3 6
11 10 16 10 6 0 7 -4 4 -10z m-262 -13 c3 -8 -1 -14 -8 -14 -7 0 -11 6 -8 14
3 7 6 13 8 13 2 0 5 -6 8 -13z m-239 -5 c2 -4 -4 -8 -14 -8 -10 0 -16 4 -14 8
3 4 9 8 14 8 5 0 11 -4 14 -8z m41 -2 c-3 -5 -12 -10 -18 -10 -7 0 -6 4 3 10
19 12 23 12 15 0z m429 -6 c3 -8 2 -12 -4 -9 -6 3 -10 10 -10 16 0 14 7 11 14
-7z m-595 -21 c2 -1 -5 -1 -16 0 -11 0 -20 7 -20 14 0 10 4 10 16 1 9 -7 18
-13 20 -15z m415 13 c-3 -9 -12 -12 -22 -9 -15 6 -9 11 25 22 1 1 0 -5 -3 -13z
m147 -9 c-10 -9 -11 -8 -5 6 3 10 9 15 12 12 3 -3 0 -11 -7 -18z m-1425 -2
c-1 -8 -5 -17 -8 -21 -5 -4 -4 16 1 34 3 9 9 -1 7 -13z m80 0 c-1 -8 -5 -17
-8 -21 -5 -4 -4 16 1 34 3 9 9 -1 7 -13z m413 1 c9 -11 9 -16 -1 -22 -7 -4
-10 -4 -6 1 4 4 3 14 -3 22 -6 7 -9 13 -6 13 2 0 10 -6 16 -14z m105 6 c3 -5
-1 -9 -9 -9 -8 0 -12 4 -9 9 3 4 7 8 9 8 2 0 6 -4 9 -8z m106 -2 c0 -5 -2 -10
-4 -10 -3 0 -8 5 -11 10 -3 6 -1 10 4 10 6 0 11 -4 11 -10z m97 -7 c0 -10 -4
-10 -16 -1 -9 7 -18 13 -20 15 -2 1 5 1 16 0 11 0 20 -7 20 -14z m136 -1 c15
-16 15 -19 2 -19 -8 0 -13 3 -10 5 3 3 0 11 -6 19 -17 20 -5 16 14 -5z m127 8
c0 -5 -4 -10 -10 -10 -5 0 -10 5 -10 10 0 6 5 10 10 10 6 0 10 -4 10 -10z
m122 -8 c4 -12 -1 -18 -13 -18 -12 0 -15 4 -9 12 6 6 7 14 3 17 -3 4 -2 7 4 7
6 0 13 -8 15 -18z m202 3 c-4 -8 -11 -12 -16 -9 -6 4 -5 10 3 15 19 12 19 11
13 -6z m-1268 -34 c0 -17 -3 -28 -6 -26 -5 3 -6 38 -1 53 4 10 7 -3 7 -27z
m629 20 c-9 -8 -36 -10 -30 -2 2 4 11 8 20 8 8 0 13 -3 10 -6z m236 -4 c-6 -8
-9 -16 -6 -19 3 -2 -2 -5 -10 -5 -13 0 -13 3 2 19 19 21 31 25 14 5z m119 9
c0 -2 -7 -7 -16 -10 -8 -3 -12 -2 -9 4 6 10 25 14 25 6z m197 -15 c0 -11 -5
-17 -9 -15 -4 3 -8 0 -8 -7 0 -7 -3 -9 -6 -6 -4 4 -2 13 4 20 7 8 9 17 5 20
-3 4 -1 7 5 7 6 0 10 -9 9 -19z m46 2 c-4 -11 -3 -14 5 -9 7 4 12 2 12 -3 0
-6 -4 -11 -9 -11 -14 0 -23 18 -16 30 10 16 15 12 8 -7z m77 -3 c-29 -23 -40
-25 -40 -8 0 6 3 8 6 5 4 -3 16 0 28 8 30 22 35 18 6 -5z m56 8 c4 -6 3 -8 -3
-5 -6 4 -14 0 -17 -9 -4 -9 -9 -14 -13 -11 -3 4 0 13 7 22 15 18 17 18 26 3z
m42 -13 c-3 -3 -9 2 -12 12 -6 14 -5 15 5 6 7 -7 10 -15 7 -18z m-1137 -2 c13
-16 12 -17 -3 -4 -10 7 -18 15 -18 17 0 8 8 3 21 -13z m495 2 c-1 -8 -5 -17
-8 -21 -5 -4 -4 16 1 34 3 9 9 -1 7 -13z m221 -10 c0 -8 -4 -12 -9 -9 -5 3 -6
10 -3 15 9 13 12 11 12 -6z m47 7 c2 -4 -4 -8 -14 -8 -10 0 -16 4 -14 8 3 4 9
8 14 8 5 0 11 -4 14 -8z m353 -12 c1 -11 -2 -20 -7 -20 -6 0 -7 17 -1 38 3 8
7 -1 8 -18z m-1582 1 c3 -5 2 -12 -3 -15 -5 -3 -9 1 -9 9 0 17 3 19 12 6z
m901 -35 c0 -25 -3 -43 -6 -41 -5 3 -6 72 -1 83 4 10 7 -4 7 -42z m-736 24 c0
-5 -5 -10 -11 -10 -5 0 -7 5 -4 10 3 6 8 10 11 10 2 0 4 -4 4 -10z m1150 -12
c8 3 12 2 9 -2 -11 -12 -49 -15 -55 -4 -5 7 -2 8 6 3 10 -6 12 -3 7 11 -6 17
-6 17 5 3 7 -9 20 -14 28 -11z m-516 -18 c-6 -6 -10 -3 -10 10 0 13 4 16 10
10 7 -7 7 -13 0 -20z m246 27 c0 -2 -10 -12 -22 -23 l-23 -19 19 23 c18 21 26
27 26 19z m35 -7 c-3 -5 -12 -10 -18 -10 -7 0 -6 4 3 10 19 12 23 12 15 0z
m85 6 c0 -2 -8 -10 -17 -17 -16 -13 -17 -12 -4 4 13 16 21 21 21 13z m350 -31
c0 -5 -5 -3 -10 5 -5 8 -10 20 -10 25 0 6 5 3 10 -5 5 -8 10 -19 10 -25z
m-1470 15 c0 -5 -2 -10 -4 -10 -3 0 -8 5 -11 10 -3 6 -1 10 4 10 6 0 11 -4 11
-10z m640 4 c0 -8 -19 -13 -24 -6 -3 5 1 9 9 9 8 0 15 -2 15 -3z m65 -4 c3 -6
-1 -7 -9 -4 -18 7 -21 14 -7 14 6 0 13 -4 16 -10z m221 3 c-2 -3 -6 -3 -9 -1
-3 2 -15 -6 -28 -17 l-24 -20 18 21 c9 11 24 21 32 21 8 0 13 -2 11 -4z m409
-21 c-3 -3 0 -10 5 -17 7 -8 5 -12 -4 -12 -8 0 -13 7 -11 16 1 9 -3 23 -9 31
-10 13 -9 13 7 1 9 -8 15 -16 12 -19z m35 13 c11 -13 10 -14 -4 -9 -9 3 -16
10 -16 15 0 13 6 11 20 -6z m140 11 c0 -2 -7 -7 -16 -10 -8 -3 -12 -2 -9 4 6
10 25 14 25 6z m-455 -15 c3 -5 2 -12 -3 -15 -5 -3 -9 1 -9 9 0 17 3 19 12 6z
m380 0 c3 -5 0 -13 -6 -17 -8 -5 -9 -3 -4 6 6 9 1 10 -16 5 -19 -5 -21 -4 -9
4 19 13 27 14 35 2z m105 -1 c0 -5 -5 -10 -11 -10 -5 0 -7 5 -4 10 3 6 8 10
11 10 2 0 4 -4 4 -10z m-720 -14 c-7 -7 -13 -7 -20 0 -6 6 -3 10 10 10 13 0
16 -4 10 -10z m205 4 c3 -6 -1 -7 -9 -4 -18 7 -21 14 -7 14 6 0 13 -4 16 -10z
m258 -21 c-8 -8 -13 -7 -18 2 -6 8 -4 10 5 4 10 -6 12 -4 6 11 -6 15 -5 17 5
7 9 -10 10 -16 2 -24z m-1070 6 c-3 -9 -8 -14 -10 -11 -3 3 -2 9 2 15 9 16 15
13 8 -4z m423 0 c-1 -8 -5 -17 -8 -21 -5 -4 -4 16 1 34 3 9 9 -1 7 -13z m84
11 c0 -2 -8 -10 -17 -17 -16 -13 -17 -12 -4 4 13 16 21 21 21 13z m197 -11 c0
-8 -3 -13 -5 -10 -3 3 -15 -3 -26 -12 -15 -13 -14 -10 3 10 29 32 28 31 28 12z
m97 -14 c-2 -3 -12 3 -22 13 -16 17 -16 18 5 5 12 -7 20 -15 17 -18z m88 22
c-6 -2 -9 -10 -6 -15 4 -7 2 -8 -5 -4 -13 9 -5 26 12 25 9 0 8 -2 -1 -6z
m-1128 -11 c3 -5 -1 -9 -9 -9 -8 0 -12 4 -9 9 3 4 7 8 9 8 2 0 6 -4 9 -8z
m102 -7 c-1 -8 -5 -17 -8 -21 -5 -4 -4 16 1 34 3 9 9 -1 7 -13z m395 -8 c-10
-9 -11 -8 -5 6 3 10 9 15 12 12 3 -3 0 -11 -7 -18z m509 -2 c14 -19 14 -19 -2
-6 -10 7 -18 18 -18 24 0 6 1 8 3 6 1 -2 9 -13 17 -24z m424 17 c3 -5 -1 -9
-9 -9 -8 0 -15 4 -15 9 0 4 4 8 9 8 6 0 12 -4 15 -8z m61 -2 c3 -6 -1 -7 -9
-4 -18 7 -21 14 -7 14 6 0 13 -4 16 -10z m55 -1 c0 -5 -4 -8 -9 -4 -6 3 -14
-3 -20 -12 -6 -10 -11 -13 -11 -7 0 12 20 34 32 34 4 0 8 -5 8 -11z m40 1 c0
-5 -4 -10 -10 -10 -5 0 -10 5 -10 10 0 6 5 10 10 10 6 0 10 -4 10 -10z m-739
-17 c13 -16 12 -17 -3 -4 -10 7 -18 15 -18 17 0 8 8 3 21 -13z m438 4 c8 -10
7 -14 -4 -14 -8 0 -11 5 -8 10 4 6 -1 8 -11 4 -10 -4 -15 -3 -11 3 8 14 20 12
34 -3z m-899 -7 c0 -5 -2 -10 -4 -10 -3 0 -8 5 -11 10 -3 6 -1 10 4 10 6 0 11
-4 11 -10z m799 -26 c-14 -13 -16 -13 -16 0 0 8 5 12 10 9 7 -4 8 1 3 13 -6
15 -5 17 5 6 11 -10 10 -15 -2 -28z m56 8 c2 -12 -3 -23 -11 -26 -11 -4 -12
-1 -6 12 5 9 7 24 4 32 -2 8 -2 12 2 9 4 -4 8 -16 11 -27z m-298 3 c0 -8 -3
-13 -5 -10 -3 3 -12 -1 -21 -7 -10 -8 -9 -4 3 10 23 26 23 26 23 7z m42 2 c8
-10 7 -14 -2 -14 -8 0 -14 6 -14 14 0 7 1 13 2 13 2 0 8 -6 14 -13z m514 0 c3
-8 -1 -14 -8 -14 -7 0 -11 6 -8 14 3 7 6 13 8 13 2 0 5 -6 8 -13z m57 5 c0 -5
-7 -17 -15 -28 -14 -18 -14 -17 -4 9 12 27 19 34 19 19z m-1270 -6 c0 -3 -4
-8 -10 -11 -5 -3 -10 -1 -10 4 0 6 5 11 10 11 6 0 10 -2 10 -4z m355 -14 c-3
-3 -11 0 -18 7 -9 10 -8 11 6 5 10 -3 15 -9 12 -12z m45 12 c0 -8 -19 -13 -24
-6 -3 5 1 9 9 9 8 0 15 -2 15 -3z m54 -6 c-3 -4 -11 -5 -19 -1 -21 7 -19 12 4
10 11 0 18 -5 15 -9z m37 -5 c13 -16 12 -17 -3 -4 -10 7 -18 15 -18 17 0 8 8
3 21 -13z m349 -6 c0 -2 -8 -3 -18 -3 -10 0 -19 6 -19 13 0 8 6 9 19 2 10 -5
18 -11 18 -12z m324 8 c-4 -8 -11 -12 -16 -9 -6 4 -5 10 3 15 19 12 19 11 13
-6z m-1404 -9 c0 -3 -4 -8 -10 -11 -5 -3 -10 -1 -10 4 0 6 5 11 10 11 6 0 10
-2 10 -4z m140 -6 c0 -5 -5 -10 -11 -10 -5 0 -7 5 -4 10 3 6 8 10 11 10 2 0 4
-4 4 -10z m818 -10 c-7 -10 -14 -17 -17 -15 -4 4 18 35 25 35 2 0 -1 -9 -8
-20z m362 10 c0 -5 -4 -10 -10 -10 -5 0 -10 5 -10 10 0 6 5 10 10 10 6 0 10
-4 10 -10z m43 -7 c-4 -11 -3 -14 5 -9 7 4 12 2 12 -3 0 -6 -4 -11 -9 -11 -14
0 -23 18 -16 30 10 16 15 12 8 -7z m147 -8 c-7 -8 -16 -15 -21 -15 -5 0 -1 8
9 18 20 22 31 19 12 -3z m-395 6 c3 -5 2 -12 -3 -15 -5 -3 -9 1 -9 9 0 17 3
19 12 6z m319 -6 c-23 -17 -34 -19 -34 -4 0 5 4 8 9 4 5 -3 12 -1 16 5 3 5 11
10 18 10 6 0 2 -7 -9 -15z m-1190 -3 c3 -5 -1 -9 -9 -9 -8 0 -12 4 -9 9 3 4 7
8 9 8 2 0 6 -4 9 -8z m247 -15 c-10 -9 -11 -8 -5 6 3 10 9 15 12 12 3 -3 0
-11 -7 -18z m224 14 c3 -5 2 -12 -3 -15 -5 -3 -9 1 -9 9 0 17 3 19 12 6z m159
-14 c1 -8 8 -23 16 -33 14 -18 14 -18 -6 -2 -11 9 -20 27 -21 39 -2 23 7 20
11 -4z m116 19 c0 -2 -8 -10 -17 -17 -16 -13 -17 -12 -4 4 13 16 21 21 21 13z
m74 -8 c-4 -5 -9 -7 -12 -4 -3 3 -12 0 -21 -7 -14 -10 -14 -10 -4 4 13 16 46
23 37 7z m161 3 c-3 -2 -16 -6 -28 -8 -15 -2 -18 0 -9 5 14 9 45 12 37 3z
m319 -6 c-4 -8 -8 -15 -10 -15 -2 0 -4 7 -4 15 0 8 4 15 10 15 5 0 7 -7 4 -15z
m-866 -20 c-3 -3 -9 2 -12 12 -6 14 -5 15 5 6 7 -7 10 -15 7 -18z m-624 7 c3
-5 -1 -9 -9 -9 -8 0 -12 4 -9 9 3 4 7 8 9 8 2 0 6 -4 9 -8z m66 -7 c0 -2 -9
-3 -19 -2 -11 0 -18 5 -15 9 4 6 34 0 34 -7z m634 -1 c3 -8 2 -12 -4 -9 -6 3
-10 10 -10 16 0 14 7 11 14 -7z m172 4 c3 -4 -1 -5 -10 -4 -8 1 -18 5 -22 8
-3 4 1 5 10 4 8 -1 18 -5 22 -8z m585 -11 c-10 -9 -11 -8 -5 6 3 10 9 15 12
12 3 -3 0 -11 -7 -18z m-1058 -2 c-3 -9 -8 -14 -10 -11 -3 3 -2 9 2 15 9 16
15 13 8 -4z m603 -4 c0 -16 -3 -17 -14 -9 -12 10 -7 19 13 28 1 0 1 -9 1 -19z
m54 4 c0 -1 -6 -7 -13 -13 -10 -8 -13 -6 -13 7 0 11 6 17 13 14 7 -3 13 -6 13
-8z m44 3 c-5 -7 -2 -9 8 -6 8 4 15 0 15 -7 0 -9 -6 -11 -16 -6 -9 5 -22 6
-28 4 -7 -3 -13 0 -13 7 0 6 4 9 9 5 5 -3 12 -1 16 5 3 5 8 10 11 10 3 0 2 -5
-2 -12z m290 -4 c9 -24 2 -26 -12 -4 -7 11 -8 20 -3 20 5 0 12 -7 15 -16z
m-847 -11 c0 -8 -4 -10 -12 -3 -7 5 -16 6 -20 2 -5 -4 -5 -2 -2 4 9 15 34 13
34 -3z m123 7 c0 -5 -2 -10 -4 -10 -3 0 -8 5 -11 10 -3 6 -1 10 4 10 6 0 11
-4 11 -10z m280 1 c0 -6 -4 -12 -8 -15 -5 -3 -9 1 -9 9 0 8 4 15 9 15 4 0 8
-4 8 -9z m260 -4 c0 -6 -3 -8 -6 -4 -3 3 -16 2 -28 -3 -16 -6 -23 -5 -23 3 0
7 13 12 29 13 15 1 28 -3 28 -9z m51 -4 c13 -16 12 -17 -3 -4 -10 7 -18 15
-18 17 0 8 8 3 21 -13z m55 -10 c-6 -6 -36 9 -36 18 0 5 9 4 20 -3 10 -7 18
-14 16 -15z m49 8 c3 -5 0 -13 -6 -17 -8 -5 -9 -3 -4 6 6 10 4 12 -9 7 -10 -4
-15 -3 -11 3 8 13 22 13 30 1z m75 -6 c0 -2 -6 -5 -13 -8 -8 -3 -14 1 -14 8 0
7 6 11 14 8 7 -3 13 -6 13 -8z m-194 -28 c2 -12 0 -16 -2 -9 -3 6 -9 10 -14 7
-4 -3 -10 2 -13 10 -4 10 -1 12 10 8 12 -5 14 -3 8 8 -4 8 -4 11 0 6 5 -4 10
-18 11 -30z m224 23 c0 -5 -2 -10 -4 -10 -3 0 -8 5 -11 10 -3 6 -1 10 4 10 6
0 11 -4 11 -10z m-1126 -30 c-6 -6 -10 -3 -10 10 0 13 4 16 10 10 7 -7 7 -13
0 -20z m-310 8 c-3 -4 -9 -8 -15 -8 -5 0 -9 4 -9 8 0 5 7 9 15 9 8 0 12 -4 9
-9z m76 4 c0 -5 -7 -9 -15 -9 -8 0 -12 4 -9 9 3 4 9 8 15 8 5 0 9 -4 9 -8z
m927 -14 c-3 -8 -6 -5 -6 6 -1 11 2 17 5 13 3 -3 4 -12 1 -19z m119 10 c3 -4
-1 -5 -10 -4 -8 1 -18 5 -22 8 -3 4 1 5 10 4 8 -1 18 -5 22 -8z m178 4 c3 -5
-1 -9 -9 -9 -8 0 -15 4 -15 9 0 4 4 8 9 8 6 0 12 -4 15 -8z m60 0 c3 -5 -1 -9
-9 -9 -8 0 -15 4 -15 9 0 4 4 8 9 8 6 0 12 -4 15 -8z m56 -2 c0 -5 -4 -10 -10
-10 -5 0 -10 5 -10 10 0 6 5 10 10 10 6 0 10 -4 10 -10z m-1200 -20 c0 -5 -5
-10 -11 -10 -5 0 -7 5 -4 10 3 6 8 10 11 10 2 0 4 -4 4 -10z m310 7 c0 -2 -9
-12 -19 -21 -14 -13 -21 -14 -27 -5 -4 7 -3 10 3 6 6 -4 16 0 23 8 12 14 20
19 20 12z m120 -1 c0 -2 -8 -10 -17 -17 -16 -13 -17 -12 -4 4 13 16 21 21 21
13z m80 0 c0 -2 -8 -10 -17 -17 -16 -13 -17 -12 -4 4 13 16 21 21 21 13z m65
-4 c-3 -3 0 -11 6 -19 17 -20 5 -16 -14 5 -15 16 -15 19 -2 19 8 0 13 -3 10
-5z m40 0 c-3 -3 3 -15 12 -26 14 -15 14 -18 2 -8 -9 6 -20 8 -25 4 -5 -4 -6
-3 -2 2 4 5 3 14 -2 21 -7 8 -5 12 5 12 8 0 13 -3 10 -5z m42 -9 c0 -9 -4 -10
-14 -2 -7 6 -13 12 -13 14 0 1 6 2 13 2 8 0 14 -6 14 -14z m517 1 c3 -8 2 -12
-4 -9 -6 3 -10 10 -10 16 0 14 7 11 14 -7z m-839 -3 c3 -5 2 -12 -3 -15 -5 -3
-9 1 -9 9 0 17 3 19 12 6z m806 -14 c-10 -9 -11 -8 -5 6 3 10 9 15 12 12 3 -3
0 -11 -7 -18z m-950 -10 c-10 -9 -11 -8 -5 6 3 10 9 15 12 12 3 -3 0 -11 -7
-18z m360 6 c13 -16 12 -17 -3 -4 -15 11 -21 11 -35 0 -16 -13 -17 -12 -4 4 7
9 17 17 21 17 4 0 14 -8 21 -17z m203 9 c3 -5 -1 -9 -9 -9 -8 0 -12 4 -9 9 3
4 7 8 9 8 2 0 6 -4 9 -8z m120 -3 c3 -3 -14 -5 -39 -4 -24 0 -46 3 -49 6 -3 3
14 5 39 4 24 0 46 -3 49 -6z m86 6 c0 -7 -30 -13 -34 -7 -3 4 4 9 15 9 10 1
19 0 19 -2z m60 -26 c0 -5 -5 -9 -12 -9 -6 0 -8 3 -5 7 4 3 1 13 -6 22 -11 14
-10 14 6 2 9 -7 17 -17 17 -22z m84 16 c-4 -8 -11 -12 -16 -9 -6 4 -5 10 3 15
19 12 19 11 13 -6z m-646 -20 c-3 -3 -9 2 -12 12 -6 14 -5 15 5 6 7 -7 10 -15
7 -18z m236 17 c2 -4 -4 -8 -14 -8 -10 0 -16 4 -14 8 3 4 9 8 14 8 5 0 11 -4
14 -8z m-859 -11 c-8 -7 -45 -9 -50 -1 -2 3 9 6 25 6 17 0 27 -2 25 -5z m85 5
c0 -3 -4 -8 -10 -11 -5 -3 -10 -1 -10 4 0 6 5 11 10 11 6 0 10 -2 10 -4z m829
-12 c10 7 9 -20 -2 -29 -4 -3 -5 -2 -2 1 2 4 -4 14 -13 23 -10 9 -12 12 -5 8
6 -5 16 -6 22 -3z m241 -18 c0 -5 -3 -6 -7 -3 -3 4 -12 -1 -20 -11 -13 -15
-13 -15 -4 4 7 15 7 25 -2 34 -9 9 -6 8 11 -1 12 -8 22 -18 22 -23z m73 17
c-4 -11 -3 -14 5 -9 7 4 12 2 12 -3 0 -6 -4 -11 -9 -11 -14 0 -23 18 -16 30
10 16 15 12 8 -7z m77 -3 c-29 -23 -40 -25 -40 -8 0 6 3 8 6 5 4 -3 16 0 28 8
30 22 35 18 6 -5z m56 8 c4 -6 3 -8 -3 -5 -6 4 -14 0 -17 -9 -4 -9 -9 -14 -13
-11 -3 4 0 13 7 22 15 18 17 18 26 3z m42 -13 c-3 -3 -9 2 -12 12 -6 14 -5 15
5 6 7 -7 10 -15 7 -18z m-640 -10 c-3 -3 -9 2 -12 12 -6 14 -5 15 5 6 7 -7 10
-15 7 -18z m-98 -10 c14 -19 14 -19 -2 -6 -10 7 -18 18 -18 24 0 6 1 8 3 6 1
-2 9 -13 17 -24z m35 7 c-3 -3 -11 0 -18 7 -9 10 -8 11 6 5 10 -3 15 -9 12
-12z m96 -5 c-10 -9 -11 -8 -5 6 3 10 9 15 12 12 3 -3 0 -11 -7 -18z m74 13
c3 -6 -1 -7 -9 -4 -18 7 -21 14 -7 14 6 0 13 -4 16 -10z m85 -5 c11 -13 10
-14 -4 -9 -9 3 -16 10 -16 15 0 13 6 11 20 -6z m130 5 c0 -5 -4 -10 -10 -10
-5 0 -10 5 -10 10 0 6 5 10 10 10 6 0 10 -4 10 -10z m297 -10 c1 -11 -2 -20
-7 -20 -6 0 -7 17 -1 38 3 8 7 -1 8 -18z m-797 6 c0 -2 -8 -10 -17 -17 -16
-13 -17 -12 -4 4 13 16 21 21 21 13z m160 0 c0 -2 -8 -10 -17 -17 -16 -13 -17
-12 -4 4 13 16 21 21 21 13z m285 -14 c-3 -3 -11 0 -18 7 -9 10 -8 11 6 5 10
-3 15 -9 12 -12z m151 3 c-1 -8 -8 -21 -16 -28 -10 -10 -11 -9 -4 3 5 8 9 18
10 23 3 14 4 17 8 17 2 0 3 -7 2 -15z m-1096 -5 c0 -5 -2 -10 -4 -10 -3 0 -8
5 -11 10 -3 6 -1 10 4 10 6 0 11 -4 11 -10z m774 2 c3 -5 -1 -9 -9 -9 -8 0
-12 4 -9 9 3 4 7 8 9 8 2 0 6 -4 9 -8z m-499 -14 c5 4 5 1 1 -6 -6 -10 -11
-10 -22 -1 -8 6 -14 14 -14 16 0 3 6 0 13 -6 8 -6 18 -7 22 -3z m402 -3 c0 -8
-3 -13 -5 -10 -3 3 -12 -1 -21 -7 -10 -8 -9 -4 3 10 23 26 23 26 23 7z m230
-7 c-3 -8 -6 -5 -6 6 -1 11 2 17 5 13 3 -3 4 -12 1 -19z m323 -13 c0 -5 -5 -3
-10 5 -5 8 -10 20 -10 25 0 6 5 3 10 -5 5 -8 10 -19 10 -25z m-816 17 c3 -5
-1 -9 -9 -9 -8 0 -12 4 -9 9 3 4 7 8 9 8 2 0 6 -4 9 -8z m396 4 c0 -2 -8 -10
-17 -17 -16 -13 -17 -12 -4 4 13 16 21 21 21 13z m24 -12 c3 -8 2 -12 -4 -9
-6 3 -10 10 -10 16 0 14 7 11 14 -7z m37 -7 c-10 -9 -11 -8 -5 6 3 10 9 15 12
12 3 -3 0 -11 -7 -18z m74 13 c3 -6 -1 -7 -9 -4 -18 7 -21 14 -7 14 6 0 13 -4
16 -10z m90 -8 c-3 -3 -11 0 -18 7 -9 10 -8 11 6 5 10 -3 15 -9 12 -12z m95 3
c11 -13 10 -14 -4 -9 -9 3 -16 10 -16 15 0 13 6 11 20 -6z m140 11 c0 -2 -7
-7 -16 -10 -8 -3 -12 -2 -9 4 6 10 25 14 25 6z m-75 -15 c3 -5 0 -13 -6 -17
-8 -5 -9 -3 -4 6 6 9 1 10 -16 5 -19 -5 -21 -4 -9 4 19 13 27 14 35 2z m105
-1 c0 -5 -5 -10 -11 -10 -5 0 -7 5 -4 10 3 6 8 10 11 10 2 0 4 -4 4 -10z
m-800 -14 c-7 -7 -13 -7 -20 0 -6 6 -3 10 10 10 13 0 16 -4 10 -10z m123 2
c-5 -7 -9 -30 -8 -50 1 -20 -2 -35 -5 -33 -16 10 -1 95 17 95 3 0 1 -6 -4 -12z
m-227 -24 c1 -9 0 -13 -4 -10 -3 4 -7 14 -8 22 -1 9 0 13 4 10 3 -4 7 -14 8
-22z m280 11 c-1 -8 -5 -17 -8 -21 -5 -4 -4 16 1 34 3 9 9 -1 7 -13z m311 -7
c-3 -8 -6 -5 -6 6 -1 11 2 17 5 13 3 -3 4 -12 1 -19z m90 3 c-1 -12 -6 -17
-16 -13 -10 4 -12 1 -6 -8 5 -8 4 -11 -3 -6 -6 4 -9 13 -6 21 4 8 10 12 15 9
5 -3 9 0 9 5 0 6 2 11 4 11 3 0 4 -9 3 -19z m-803 -7 c3 -8 2 -12 -4 -9 -6 3
-10 10 -10 16 0 14 7 11 14 -7z m277 -1 c13 -17 13 -17 -6 -3 -11 8 -22 16
-24 17 -2 2 0 3 6 3 6 0 17 -8 24 -17z m289 5 c0 -3 -9 -6 -20 -5 -11 1 -20 5
-20 9 0 3 9 6 20 5 11 -1 20 -5 20 -9z m60 2 c0 -5 -4 -10 -10 -10 -5 0 -10 5
-10 10 0 6 5 10 10 10 6 0 10 -4 10 -10z m264 2 c3 -5 -1 -9 -9 -9 -8 0 -15 4
-15 9 0 4 4 8 9 8 6 0 12 -4 15 -8z m61 -2 c3 -6 -1 -7 -9 -4 -18 7 -21 14 -7
14 6 0 13 -4 16 -10z m55 -1 c0 -5 -4 -8 -9 -4 -6 3 -14 -3 -20 -12 -6 -10
-11 -13 -11 -7 0 12 20 34 32 34 4 0 8 -5 8 -11z m40 1 c0 -5 -4 -10 -10 -10
-5 0 -10 5 -10 10 0 6 5 10 10 10 6 0 10 -4 10 -10z m-625 -30 c-10 -11 -20
-18 -23 -15 -3 3 -15 -3 -26 -12 -21 -18 -21 -18 -2 4 10 13 22 20 26 18 4 -3
13 2 20 10 7 8 15 15 18 15 3 0 -3 -9 -13 -20z m-597 -15 c-3 -3 -9 2 -12 12
-6 14 -5 15 5 6 7 -7 10 -15 7 -18z m700 0 c-3 -3 -9 2 -12 12 -6 14 -5 15 5
6 7 -7 10 -15 7 -18z m159 10 c0 -8 -5 -11 -10 -8 -7 4 -8 -1 -3 -12 5 -15 4
-16 -9 -5 -14 11 -13 14 2 26 10 7 18 14 19 14 0 0 1 -7 1 -15z m276 2 c3 -8
-1 -14 -8 -14 -7 0 -11 6 -8 14 3 7 6 13 8 13 2 0 5 -6 8 -13z m57 5 c0 -5 -7
-17 -15 -28 -14 -18 -14 -17 -4 9 12 27 19 34 19 19z m-896 -13 c3 -3 -5 -5
-19 -5 -13 0 -22 3 -19 7 4 8 30 6 38 -2z m345 8 c-2 -1 -13 -9 -24 -17 -19
-14 -19 -14 -6 3 7 9 18 17 24 17 6 0 8 -1 6 -3z m138 -19 c-3 -8 -6 -5 -6 6
-1 11 2 17 5 13 3 -3 4 -12 1 -19z m143 13 c0 -6 -4 -12 -8 -15 -5 -3 -9 1 -9
9 0 8 4 15 9 15 4 0 8 -4 8 -9z m80 -26 c0 -5 -5 -3 -10 5 -5 8 -10 20 -10 25
0 6 5 3 10 -5 5 -8 10 -19 10 -25z m84 20 c-4 -8 -11 -12 -16 -9 -6 4 -5 10 3
15 19 12 19 11 13 -6z m-619 -52 c-18 -17 -18 -17 -6 0 11 14 11 20 0 35 -12
16 -12 16 6 0 19 -18 19 -18 0 -35z m489 35 c-5 -8 -2 -9 9 -5 23 9 21 0 -2
-13 -16 -8 -19 -7 -16 8 5 23 4 22 11 22 3 0 2 -5 -2 -12z m89 -5 c-4 -11 -3
-14 5 -9 7 4 12 2 12 -3 0 -6 -4 -11 -9 -11 -14 0 -23 18 -16 30 10 16 15 12
8 -7z m147 -8 c-7 -8 -16 -15 -21 -15 -5 0 -1 8 9 18 20 22 31 19 12 -3z
m-614 0 c-1 -8 -5 -17 -8 -21 -5 -4 -4 16 1 34 3 9 9 -1 7 -13z m114 0 c-14
-17 -30 -20 -30 -4 0 5 4 8 9 4 5 -3 12 -1 16 5 3 5 9 10 12 10 3 0 0 -7 -7
-15z m140 0 c0 -2 -6 -5 -13 -8 -8 -3 -14 1 -14 8 0 7 6 11 14 8 7 -3 13 -6
13 -8z m284 0 c-23 -17 -34 -19 -34 -4 0 5 4 8 9 4 5 -3 12 -1 16 5 3 5 11 10
18 10 6 0 2 -7 -9 -15z m-377 -10 c0 -8 -4 -12 -9 -9 -5 3 -6 10 -3 15 9 13
12 11 12 -6z m169 2 c4 -3 -4 -4 -16 -2 -30 6 -40 16 -12 12 12 -2 24 -6 28
-10z m318 -2 c-4 -8 -8 -15 -10 -15 -2 0 -4 7 -4 15 0 8 4 15 10 15 5 0 7 -7
4 -15z m-787 -10 c0 -8 -4 -12 -9 -9 -5 3 -6 10 -3 15 9 13 12 11 12 -6z m560
0 c0 -8 -4 -15 -9 -15 -10 0 -11 14 -1 23 9 10 10 9 10 -8z m-157 1 c0 -2 -7
-7 -16 -10 -8 -3 -12 -2 -9 4 6 10 25 14 25 6z m35 -5 c3 -5 0 -13 -6 -17 -7
-4 -9 -3 -5 4 3 5 0 13 -6 15 -9 4 -10 6 -1 6 6 1 14 -3 18 -8z m316 -14 c-10
-9 -11 -8 -5 6 3 10 9 15 12 12 3 -3 0 -11 -7 -18z m-557 -16 c-2 -3 -12 3
-22 13 -16 17 -16 18 5 5 12 -7 20 -15 17 -18z m490 13 c9 -24 2 -26 -12 -4
-7 11 -8 20 -3 20 5 0 12 -7 15 -16z m-524 -19 c14 -19 14 -19 -2 -6 -10 7
-18 18 -18 24 0 6 1 8 3 6 1 -2 9 -13 17 -24z m446 -2 c-6 -6 -36 9 -36 18 0
5 9 4 20 -3 10 -7 18 -14 16 -15z m49 8 c3 -5 0 -13 -6 -17 -8 -5 -9 -3 -4 6
6 10 4 12 -9 7 -10 -4 -15 -3 -11 3 8 13 22 13 30 1z m75 -6 c0 -2 -6 -5 -13
-8 -8 -3 -14 1 -14 8 0 7 6 11 14 8 7 -3 13 -6 13 -8z m-370 -10 c-5 -7 -6
-15 -2 -20 4 -4 -3 -2 -15 4 -27 14 -31 23 -6 14 10 -4 14 -2 10 4 -3 5 0 10
8 10 10 0 12 -4 5 -12z m116 -8 c1 -7 -6 -13 -16 -13 -9 0 -17 6 -17 12 0 7 7
10 15 6 11 -4 13 -1 7 9 -5 8 -4 11 0 6 5 -4 10 -13 11 -20z m284 13 c0 -5 -2
-10 -4 -10 -3 0 -8 5 -11 10 -3 6 -1 10 4 10 6 0 11 -4 11 -10z m-740 -4 c0
-2 -8 -10 -17 -17 -16 -13 -17 -12 -4 4 13 16 21 21 21 13z m134 -25 c-2 -3
-12 3 -22 13 -16 17 -16 18 5 5 12 -7 20 -15 17 -18z m104 4 c-3 -3 -9 2 -12
12 -6 14 -5 15 5 6 7 -7 10 -15 7 -18z m56 7 c3 -5 -1 -9 -9 -9 -8 0 -12 4 -9
9 3 4 7 8 9 8 2 0 6 -4 9 -8z m310 0 c3 -5 -1 -9 -9 -9 -8 0 -15 4 -15 9 0 4
4 8 9 8 6 0 12 -4 15 -8z"/>
</g>
</svg>
